<?xml version="1.0" encoding="UTF-8"?>
<!DOCTYPE svg PUBLIC "-//W3C//DTD SVG 1.1//EN" "http://www.w3.org/Graphics/SVG/1.1/DTD/svg11.dtd">
<!-- Creator: CorelDRAW X7 -->
<svg xmlns="http://www.w3.org/2000/svg" xml:space="preserve" width="16.9887mm" height="14.9965mm" version="1.1" style="shape-rendering:geometricPrecision; text-rendering:geometricPrecision; image-rendering:optimizeQuality; fill-rule:evenodd; clip-rule:evenodd"
viewBox="0 0 177 156"
 xmlns:xlink="http://www.w3.org/1999/xlink">
 <defs>
  <style type="text/css">
   <![CDATA[
    .fil0 {fill:#E31337}
   ]]>
  </style>
 </defs>
 <g id="图层_x0020_1">
  <metadata id="CorelCorpID_0Corel-Layer"/>
  <g id="_339092232">
   <path class="fil0" d="M44 156c5,-6 44,-70 44,-78 0,-7 -16,-30 -21,-38 -3,-7 -6,-12 -11,-19 -4,-8 -5,-13 -15,-20 -3,11 -14,28 -20,39 -6,10 -22,30 -21,40 1,6 39,71 44,76z"/>
   <path class="fil0" d="M109 156c28,0 22,6 42,-30 35,-63 34,-33 0,-96 -3,-5 -9,-16 -13,-22 -7,-11 -14,-8 -29,-7 3,15 41,67 42,77 0,8 -37,62 -42,78z"/>
   <path class="fil0" d="M65 156l23 0c11,-16 34,-51 40,-68l-27 0c-7,18 -32,53 -36,68z"/>
   <path class="fil0" d="M103 69l25 0c-3,-11 -32,-58 -40,-68l-22 0c1,8 30,58 37,68z"/>
  </g>
 </g>
</svg>
