<?xml version="1.0" encoding="UTF-8"?>
<!DOCTYPE svg PUBLIC "-//W3C//DTD SVG 1.1//EN" "http://www.w3.org/Graphics/SVG/1.1/DTD/svg11.dtd">
<!-- Creator: CorelDRAW X7 -->
<svg xmlns="http://www.w3.org/2000/svg" xml:space="preserve" width="16.5237mm" height="11.25mm" version="1.1" style="shape-rendering:geometricPrecision; text-rendering:geometricPrecision; image-rendering:optimizeQuality; fill-rule:evenodd; clip-rule:evenodd"
viewBox="0 0 626 427"
 xmlns:xlink="http://www.w3.org/1999/xlink">
 <defs>
  <style type="text/css">
   <![CDATA[
    .fil1 {fill:none}
    .fil0 {fill:#046EB8}
   ]]>
  </style>
 </defs>
 <g id="图层_x0020_1">
  <metadata id="CorelCorpID_0Corel-Layer"/>
  <g id="_431108896">
   <path class="fil0" d="M309 230c9,-10 46,-30 65,-37 26,-9 40,-18 65,-34 25,-16 36,-41 43,-52 2,-5 4,-9 6,-14 3,-5 4,-10 5,-12l1 -2c1,25 -26,70 -37,81 -36,33 -62,38 -112,56 -14,5 -31,12 -36,14z"/>
   <path class="fil0" d="M298 252c1,0 11,-5 14,-6 15,-7 29,-12 46,-17 44,-12 70,-22 105,-47 18,-12 17,-22 28,-37 0,0 0,-1 0,-1 0,0 1,0 1,0 0,0 0,0 0,-1 -3,20 -23,50 -43,62 -44,26 -74,26 -133,42 -5,1 -14,5 -18,5z"/>
   <path class="fil0" d="M295 273c28,-13 60,-17 93,-24 23,-4 44,-11 61,-20 8,-4 22,-13 27,-18 4,-4 9,-9 14,-13 -26,58 -92,62 -160,70 -12,1 -24,4 -35,5z"/>
   <path class="fil0" d="M311 209c13,-22 59,-58 100,-79 28,-14 52,-47 64,-73 4,-11 9,-23 13,-36l1 -2c1,23 -12,60 -31,89 -19,30 -75,60 -101,71 -25,11 -40,28 -46,30z"/>
   <path class="fil0" d="M242 329c-54,-33 -75,-75 -112,-104 -26,-21 -60,-36 -116,-38 83,-40 165,2 191,29 56,61 124,97 233,122 66,15 106,25 159,25 32,-1 -7,5 -15,6 -81,10 -136,10 -181,7 -56,-4 -96,-8 -159,-47z"/>
   <path class="fil0" d="M196 135c-64,45 -118,20 -166,37 16,-24 39,-25 77,-22 42,2 51,1 89,-15z"/>
  </g>
  <rect class="fil1" width="626" height="427"/>
 </g>
</svg>
