<?xml version="1.0" encoding="UTF-8"?>
<!DOCTYPE svg PUBLIC "-//W3C//DTD SVG 1.1//EN" "http://www.w3.org/Graphics/SVG/1.1/DTD/svg11.dtd">
<!-- Creator: CorelDRAW X7 -->
<svg xmlns="http://www.w3.org/2000/svg" xml:space="preserve" width="16.7199mm" height="14.1663mm" version="1.1" style="shape-rendering:geometricPrecision; text-rendering:geometricPrecision; image-rendering:optimizeQuality; fill-rule:evenodd; clip-rule:evenodd"
viewBox="0 0 346 294"
 xmlns:xlink="http://www.w3.org/1999/xlink">
 <defs>
  <style type="text/css">
   <![CDATA[
    .fil0 {fill:#8449E7}
   ]]>
  </style>
 </defs>
 <g id="图层_x0020_1">
  <metadata id="CorelCorpID_0Corel-Layer"/>
  <path class="fil0" d="M1 71c0,73 -8,82 26,100 82,45 63,42 130,4 89,-51 80,-61 127,-35 31,17 27,15 27,65 0,35 -56,51 -67,49 -6,-1 -30,-15 -38,-20 -20,-12 -15,-20 -15,-46 -14,2 -26,10 -34,15 0,42 -4,41 30,59 71,38 51,44 116,7 49,-28 43,-12 43,-109 0,-27 -8,-28 -27,-38 -14,-8 -27,-16 -41,-24 -53,-31 -103,43 -171,67 -19,7 -30,-4 -45,-13 -29,-16 -27,-11 -27,-60 0,-25 6,-27 23,-37 30,-17 37,-27 83,5 18,12 14,21 15,46 12,-2 23,-10 33,-16 3,-41 0,-42 -28,-57 -73,-40 -52,-45 -118,-8 -25,15 -42,15 -42,46z"/>
 </g>
</svg>
