<?xml version="1.0" encoding="UTF-8"?>
<!DOCTYPE svg PUBLIC "-//W3C//DTD SVG 1.1//EN" "http://www.w3.org/Graphics/SVG/1.1/DTD/svg11.dtd">
<!-- Creator: CorelDRAW X7 -->
<svg xmlns="http://www.w3.org/2000/svg" xml:space="preserve" width="39.5817mm" height="34.5016mm" version="1.1" style="shape-rendering:geometricPrecision; text-rendering:geometricPrecision; image-rendering:optimizeQuality; fill-rule:evenodd; clip-rule:evenodd"
viewBox="0 0 1524 1329"
 xmlns:xlink="http://www.w3.org/1999/xlink">
 <defs>
  <style type="text/css">
   <![CDATA[
    .fil2 {fill:none}
    .fil0 {fill:#53AC94}
    .fil1 {fill:#FDFDFD}
   ]]>
  </style>
 </defs>
 <g id="图层_x0020_1">
  <metadata id="CorelCorpID_0Corel-Layer"/>
  <g id="_418683480">
   <path class="fil0" d="M85 586c0,41 60,81 93,108 2,2 5,5 8,7 152,126 484,498 615,587 57,-38 716,-687 716,-688 0,-47 -168,-377 -201,-443 -34,-72 -33,-129 -85,-129l-859 0c-45,0 -70,79 -86,114l-201 444z"/>
   <path class="fil1" d="M468 370l252 -1 3 114c-109,-2 -314,4 -357,102 48,75 243,84 349,90l7 347 175 1 6 -346c113,-11 298,-18 351,-88 -40,-116 -270,-90 -321,-106 -39,-14 -31,29 -31,-112l248 -3 0 -159 -678 -7 -4 168z"/>
   <path class="fil0" d="M404 545c19,53 9,67 167,86 133,16 570,44 639,-59 -47,-68 -196,-77 -294,-79l-16 121 -179 1 2 -126c-134,11 -206,27 -319,56z"/>
  </g>
  <rect class="fil2" width="1524" height="1329"/>
 </g>
</svg>
